<svg width="50" height="20" viewBox="0 0 50 20" fill="none" xmlns="http://www.w3.org/2000/svg">
<g clip-path="url(#clip0_794_561)">
<path fill-rule="evenodd" clip-rule="evenodd" d="M23.8547 3.1V7.90353H26.817C27.5229 7.90353 28.1064 7.66588 28.5676 7.19176C29.0417 6.71882 29.2794 6.15411 29.2794 5.50117C29.2794 4.86117 29.0417 4.30353 28.5676 3.82823C28.1064 3.34235 27.5229 3.09882 26.817 3.09882H23.8547V3.1ZM23.8547 9.59411V15.1659H22.0853V1.40941H26.7794C27.9711 1.40941 28.9829 1.80588 29.817 2.6C30.6641 3.39411 31.0876 4.36117 31.0876 5.50117C31.0876 6.66706 30.6641 7.64117 29.817 8.42117C28.997 9.20353 27.9829 9.59294 26.7782 9.59294H23.8547V9.59411ZM32.8759 12.2847C32.8759 12.7459 33.0711 13.1294 33.4629 13.4376C33.8535 13.7435 34.3123 13.8976 34.837 13.8976C35.5817 13.8976 36.2441 13.6223 36.8276 13.0729C37.4123 12.5212 37.7029 11.8741 37.7029 11.1318C37.1511 10.6965 36.3817 10.4788 35.3947 10.4788C34.677 10.4788 34.077 10.6529 33.597 10.9988C33.1159 11.3447 32.8759 11.7718 32.8759 12.2847ZM35.1653 5.44353C36.4735 5.44353 37.5053 5.79294 38.2629 6.49058C39.0182 7.18941 39.397 8.14706 39.397 9.36353V15.1659H37.7041V13.86H37.6276C36.8959 14.9353 35.9217 15.4741 34.7029 15.4741C33.6653 15.4741 32.7959 15.1659 32.097 14.5518C31.3982 13.9365 31.0488 13.1682 31.0488 12.2459C31.0488 11.2718 31.417 10.4976 32.1547 9.92117C32.8923 9.3447 33.8759 9.05647 35.1076 9.05647C36.157 9.05647 37.0241 9.24823 37.7029 9.63294V9.22823C37.7029 8.61411 37.4594 8.09176 36.9723 7.66353C36.5031 7.24124 35.8918 7.01145 35.2606 7.02C34.2723 7.02 33.4911 7.43529 32.9135 8.26941L31.3559 7.28823C32.2147 6.05882 33.4853 5.44353 35.1653 5.44353ZM49.11 5.75176L43.2041 19.3165H41.377L43.57 14.5706L39.6853 5.75176H41.6088L44.417 12.5153H44.4547L47.1864 5.75059L49.11 5.75176Z" fill="white"/>
<path fill-rule="evenodd" clip-rule="evenodd" d="M16.7039 8.39289C16.7039 7.83642 16.6568 7.29877 16.5674 6.78583H9.10388V9.83053H13.3792C13.2916 10.317 13.1063 10.7807 12.8345 11.1936C12.5628 11.6065 12.2102 11.96 11.798 12.2329V14.2094H14.3498C15.8439 12.8329 16.7039 10.7976 16.7039 8.39289Z" fill="#4285F4"/>
<path fill-rule="evenodd" clip-rule="evenodd" d="M9.10358 16.1176C11.24 16.1176 13.0377 15.4176 14.3495 14.2106L11.7977 12.2329C11.0883 12.7106 10.1742 12.9894 9.10358 12.9894C7.04005 12.9894 5.28711 11.5988 4.66122 9.72585H2.03299V11.7623C2.69232 13.0722 3.70256 14.1731 4.95104 14.9423C6.19952 15.7116 7.63714 16.1189 9.10358 16.1188" fill="#34A853"/>
<path fill-rule="evenodd" clip-rule="evenodd" d="M4.66146 9.72588C4.33131 8.74427 4.33131 7.68161 4.66146 6.7V4.66353H2.03323C1.47762 5.76373 1.18866 6.97923 1.1897 8.21176C1.1897 9.48823 1.49558 10.6941 2.03323 11.7612L4.66146 9.72471V9.72588Z" fill="#FABB05"/>
<path fill-rule="evenodd" clip-rule="evenodd" d="M9.10356 3.43643C10.2706 3.43643 11.3153 3.83643 12.1389 4.62231V4.62349L14.3977 2.36702C13.0283 1.09173 11.24 0.308197 9.10474 0.308197C7.63843 0.308001 6.20089 0.715115 4.95242 1.48414C3.70395 2.25316 2.69364 3.35386 2.03415 4.66349L4.66238 6.69996C5.28827 4.82702 7.04121 3.43643 9.10474 3.43643" fill="#E94235"/>
</g>
<defs>
<clipPath id="clip0_794_561">
<rect width="48.2353" height="20" fill="white" transform="translate(0.882355)"/>
</clipPath>
</defs>
</svg>
