<svg width="33" height="33" viewBox="0 0 33 33" fill="none" xmlns="http://www.w3.org/2000/svg">
<circle cx="16.1703" cy="16.5203" r="15.9048" fill="#FFDEBF"/>
<path d="M7.52246 21.3772V11.5147H11.8953C12.7744 11.5147 13.4427 11.6044 13.9001 11.7838C14.3576 11.9587 14.7231 12.2704 14.9967 12.7189C15.2703 13.1674 15.4071 13.663 15.4071 14.2057C15.4071 14.9053 15.1806 15.4951 14.7276 15.975C14.2746 16.4549 13.575 16.7599 12.6286 16.8899C12.974 17.0559 13.2364 17.2196 13.4158 17.3811C13.797 17.7309 14.158 18.1682 14.4989 18.6929L16.2144 21.3772H14.5729L13.2678 19.3253C12.8865 18.7333 12.5726 18.2803 12.3259 17.9663C12.0792 17.6524 11.8572 17.4326 11.6599 17.307C11.467 17.1815 11.2697 17.094 11.0679 17.0447C10.9199 17.0133 10.6777 16.9976 10.3413 16.9976H8.8276V21.3772H7.52246ZM8.8276 15.8674H11.633C12.2295 15.8674 12.6959 15.8068 13.0323 15.6857C13.3687 15.5601 13.6243 15.3628 13.7992 15.0937C13.9742 14.8201 14.0616 14.5241 14.0616 14.2057C14.0616 13.7392 13.8912 13.3558 13.5503 13.0553C13.2139 12.7548 12.6802 12.6045 11.9492 12.6045H8.8276V15.8674ZM17.4186 21.3772V11.5147H19.3831L21.7175 18.4978C21.9328 19.1481 22.0898 19.6348 22.1884 19.9577C22.3006 19.5989 22.4755 19.0719 22.7132 18.3767L25.0746 11.5147H26.8304V21.3772H25.5724V13.1225L22.7065 21.3772H21.5292L18.6767 12.9813V21.3772H17.4186Z" fill="#1C1C1C"/>
</svg>
