<svg width="119" height="21" viewBox="0 0 119 21" fill="none" xmlns="http://www.w3.org/2000/svg">
<rect width="20.2971" height="20.2971" transform="translate(0.548889)" fill="#219653"/>
<path d="M10.6974 13.8793L13.7843 13.0527L15.074 17.2525L10.6974 13.8793ZM17.8014 8.45074H12.3677L10.6974 3.04456L9.02716 8.45074H3.59344L7.99116 11.8017L6.32087 17.2079L10.7186 13.8569L13.4249 11.8017L17.8014 8.45074Z" fill="white"/>
<rect width="20.2971" height="20.2971" transform="translate(24.9055)" fill="#219653"/>
<path d="M35.054 13.8793L38.1409 13.0527L39.4306 17.2525L35.054 13.8793ZM42.158 8.45074H36.7243L35.054 3.04456L33.3837 8.45074H27.95L32.3477 11.8017L30.6774 17.2079L35.0752 13.8569L37.7814 11.8017L42.158 8.45074Z" fill="white"/>
<rect width="20.2971" height="20.2971" transform="translate(49.262)" fill="#219653"/>
<path d="M59.4105 13.8793L62.4974 13.0527L63.7871 17.2525L59.4105 13.8793ZM66.5145 8.45074H61.0808L59.4105 3.04456L57.7402 8.45074H52.3065L56.7042 11.8017L55.0339 17.2079L59.4317 13.8569L62.1379 11.8017L66.5145 8.45074Z" fill="white"/>
<rect width="20.2971" height="20.2971" transform="translate(73.6185)" fill="#219653"/>
<path d="M83.7671 13.8793L86.8539 13.0527L88.1437 17.2525L83.7671 13.8793ZM90.8711 8.45074H85.4374L83.7671 3.04456L82.0968 8.45074H76.6631L81.0608 11.8017L79.3905 17.2079L83.7882 13.8569L86.4945 11.8017L90.8711 8.45074Z" fill="white"/>
<rect width="20.2971" height="20.2971" transform="translate(97.9751)" fill="#219653"/>
<path d="M108.124 13.8793L111.211 13.0527L112.5 17.2525L108.124 13.8793ZM115.228 8.45074H109.794L108.124 3.04456L106.453 8.45074H101.02L105.417 11.8017L103.747 17.2079L108.145 13.8569L110.851 11.8017L115.228 8.45074Z" fill="white"/>
</svg>
