<svg width="17" height="17" viewBox="0 0 17 17" fill="none" xmlns="http://www.w3.org/2000/svg">
<g clip-path="url(#clip0_675_3459)">
<path fill-rule="evenodd" clip-rule="evenodd" d="M7.75009 15.7214C3.90551 15.7214 0.780212 12.596 0.780212 8.75147C0.780212 4.90689 3.90551 1.78156 7.75009 1.78156C9.51308 1.78156 11.1675 2.42187 12.4564 3.60341C12.0277 3.85691 11.614 4.13772 11.216 4.44167C10.2394 3.65377 9.02501 3.21997 7.75009 3.21997C4.7032 3.21997 2.21863 5.70458 2.21863 8.75147C2.21863 11.7984 4.7032 14.283 7.75009 14.283C11.9896 14.283 14.5065 9.7513 12.6831 6.22788C12.9595 5.97088 13.2439 5.72179 13.5359 5.481C13.6221 5.4099 13.709 5.33947 13.7966 5.26974C14.4066 6.32327 14.7201 7.51779 14.7201 8.75143C14.72 12.596 11.5947 15.7214 7.75009 15.7214Z" fill="#1E492D"/>
<path fill-rule="evenodd" clip-rule="evenodd" d="M7.9332 12.3344C7.85476 12.3344 7.78937 12.2821 7.76322 12.2167C7.75016 12.1905 6.62553 9.28747 4.88631 8.18902C4.54631 7.9798 4.28483 7.75748 4.38942 7.26055C4.49401 6.77671 4.82096 6.5021 5.40939 6.37132C6.45551 6.14901 7.58011 7.77054 7.99859 8.43748C9.46316 6.30597 12.3924 2.95828 16.6554 2.56599C16.861 2.54188 16.9371 2.84672 16.7469 2.93214C16.6815 2.95828 10.5877 5.74369 8.11624 12.2298C8.07704 12.2951 8.01165 12.3344 7.9332 12.3344Z" fill="#1E492D"/>
</g>
<defs>
<clipPath id="clip0_675_3459">
<rect width="16.0781" height="16.0781" fill="white" transform="translate(0.780212 0.711994)"/>
</clipPath>
</defs>
</svg>
